HIERARCHY
ROOT Hips
{
	OFFSET -0.001795 -0.223333 0.028219
	CHANNELS 6 Xposition Yposition Zposition Zrotation Yrotation Xrotation 
	JOINT LeftUpLeg
	{
		OFFSET 0.069520 -0.091406 -0.006815
		CHANNELS 3 Zrotation Yrotation Xrotation
		JOINT LeftLeg
		{
			OFFSET 0.034277 -0.375199 -0.004496
			CHANNELS 3 Zrotation Yrotation Xrotation
			JOINT LeftFoot
			{
				OFFSET -0.013596 -0.397961 -0.043693
				CHANNELS 3 Zrotation Yrotation Xrotation
				JOINT LeftToe
				{
					OFFSET 0.026358 -0.055791 0.119288
					CHANNELS 3 Zrotation Yrotation Xrotation
					End Site
					{
						OFFSET 0.000000 0.000000 0.000000
					}
				}
			}
		}
	}
	JOINT RightUpLeg
	{
		OFFSET -0.067670 -0.090522 -0.004320
		CHANNELS 3 Zrotation Yrotation Xrotation
		JOINT RightLeg
		{
			OFFSET -0.038290 -0.382569 -0.008850
			CHANNELS 3 Zrotation Yrotation Xrotation
			JOINT RightFoot
			{
				OFFSET 0.015774 -0.398415 -0.042312
				CHANNELS 3 Zrotation Yrotation Xrotation
				JOINT RightToe
				{
					OFFSET -0.025372 -0.048144 0.123348
					CHANNELS 3 Zrotation Yrotation Xrotation
					End Site
					{
						OFFSET 0.000000 0.000000 0.000000
					}
				}
			}
		}
	}
	JOINT Spine
	{
		OFFSET -0.002533 0.108963 -0.026696
		CHANNELS 3 Zrotation Yrotation Xrotation
		JOINT Spine1
		{
			OFFSET 0.005487 0.135180 0.001092
			CHANNELS 3 Zrotation Yrotation Xrotation
			JOINT Spine2
			{
				OFFSET 0.001457 0.052922 0.025425
				CHANNELS 3 Zrotation Yrotation Xrotation
				JOINT Neck
				{
					OFFSET -0.002778 0.213870 -0.042857
					CHANNELS 3 Zrotation Yrotation Xrotation
					JOINT Head
					{
						OFFSET 0.005152 0.064970 0.051349
						CHANNELS 3 Zrotation Yrotation Xrotation
						End Site
						{
							OFFSET 0.000000 0.000000 0.000000
						}
					}
				}
				JOINT LeftShoulder
				{
					OFFSET 0.078845 0.121749 -0.034090
					CHANNELS 3 Zrotation Yrotation Xrotation
					JOINT LeftArm
					{
						OFFSET 0.090977 0.030469 -0.008868
						CHANNELS 3 Zrotation Yrotation Xrotation
						JOINT LeftForeArm
						{
							OFFSET 0.259612 -0.012772 -0.027456
							CHANNELS 3 Zrotation Yrotation Xrotation
							JOINT LeftHand
							{
								OFFSET 0.249234 0.008986 -0.001171
								CHANNELS 3 Zrotation Yrotation Xrotation
								End Site
								{
									OFFSET 0.000000 0.000000 0.000000
								}
							}
						}
					}
				}
				JOINT RightShoulder
				{
					OFFSET -0.081759 0.118833 -0.038615
					CHANNELS 3 Zrotation Yrotation Xrotation
					JOINT RightArm
					{
						OFFSET -0.096012 0.032551 -0.009143
						CHANNELS 3 Zrotation Yrotation Xrotation
						JOINT RightForeArm
						{
							OFFSET -0.253742 -0.013329 -0.021401
							CHANNELS 3 Zrotation Yrotation Xrotation
							JOINT RightHand
							{
								OFFSET -0.255298 0.007772 -0.005559
								CHANNELS 3 Zrotation Yrotation Xrotation
								End Site
								{
									OFFSET 0.000000 0.000000 0.000000
								}
							}
						}
					}
				}
			}
		}
	}
}
MOTION
Frames: 7
Frame Time: 0.05000000
-11.415884 0.316329 73.199821 24.273266 -39.476267 -59.731379 3.322928 21.387797 -77.399749 0.135766 -21.385829 138.250787 -1.412140 -2.014888 2.396822 0.000000 0.000000 0.000000 -34.175788 9.491519 -75.219760 86.558546 -73.235174 74.224719 -47.579881 -59.464007 38.358898 0.000000 0.000000 0.000000 1.412118 10.007900 72.227324 0.472597 -0.164081 -24.632017 -5.916328 -9.106889 36.288542 2.653488 -3.939344 -31.646847 0.000000 0.000000 0.000000 38.721043 -9.997669 -8.447626 -53.260111 -29.633392 14.790538 39.563828 -27.927226 -3.927900 0.000000 0.000000 0.000000 -24.397825 7.120387 6.357479 78.433638 42.015622 8.718006 -5.155370 32.317505 -0.581916 0.000000 0.000000 0.000000 
-11.142802 0.354576 74.243736 15.168659 -40.595426 -41.537703 4.085339 19.016349 -79.468688 -6.336605 1.019669 140.001473 6.814403 20.688031 -8.833359 0.000000 0.000000 0.000000 -39.486736 3.233923 -73.437702 56.698854 -69.817567 103.083887 -24.417040 -39.830737 28.344463 0.000000 0.000000 0.000000 -2.189862 6.501777 60.982841 0.058668 -0.022521 -23.301731 -3.557056 -2.367045 36.977836 1.429082 -2.074368 -28.571816 0.000000 0.000000 0.000000 37.791255 -12.912719 -6.084468 -50.426869 -37.792573 16.350404 33.979691 -24.610890 -3.510956 0.000000 0.000000 0.000000 -23.612793 7.963144 4.302222 74.220962 35.690932 6.573115 -1.581580 28.747555 0.790068 0.000000 0.000000 0.000000 
-10.893124 0.408627 75.290268 11.029248 -38.394235 -19.182808 3.977049 15.767107 -86.517886 -8.249213 12.717478 132.430709 10.809924 29.276626 -11.260854 0.000000 0.000000 0.000000 -42.000250 -2.845621 -77.885292 37.681553 -59.432430 116.619245 -16.520310 -30.551719 17.582942 0.000000 0.000000 0.000000 -4.399444 3.925726 42.811083 -0.245216 0.111942 -21.012005 -1.662150 2.867028 37.245610 2.188075 -1.639007 -24.269082 0.000000 0.000000 0.000000 31.365025 -15.825620 -2.135191 -48.221408 -42.886355 15.793901 37.138750 -19.605976 -3.888017 0.000000 0.000000 0.000000 -17.240132 10.308122 3.450104 64.600336 28.830291 3.832246 -5.043195 24.009727 -0.165744 0.000000 0.000000 0.000000 
-10.644169 0.472530 76.405342 7.332008 -30.813926 3.238042 5.137175 11.547147 -95.951472 -11.032581 22.095354 123.868575 14.854367 31.639174 -1.537666 0.000000 0.000000 0.000000 -44.114446 -10.761766 -78.953129 30.494173 -49.029384 113.462805 -9.462206 -19.685776 4.387771 0.000000 0.000000 0.000000 -2.717700 1.336195 20.120561 -0.462782 0.309161 -18.539514 -1.233346 4.060745 38.348193 3.821433 -2.236359 -20.549679 0.000000 0.000000 0.000000 24.473342 -18.184405 1.017871 -50.333538 -45.580765 16.472661 41.749764 -18.911255 -4.592842 0.000000 0.000000 0.000000 -13.275950 6.697286 3.210099 59.388087 22.538258 0.690299 -6.021991 22.951572 -0.498876 0.000000 0.000000 0.000000 
-10.432263 0.535444 77.610962 4.563538 -23.275049 20.992539 5.511492 7.072654 -100.369574 -11.429639 20.575877 113.217216 15.624748 29.850896 0.642854 0.000000 0.000000 0.000000 -44.974009 -15.313266 -78.035268 31.163048 -47.438766 102.443241 -9.162409 -19.039085 0.625916 0.000000 0.000000 0.000000 -0.502623 0.371653 -0.443409 -0.728717 0.403934 -15.001785 -1.340304 4.720767 40.184567 4.912751 -2.529779 -18.532991 0.000000 0.000000 0.000000 19.392794 -18.388395 3.028457 -49.142082 -45.788498 14.544109 44.650328 -25.296951 -7.250702 0.000000 0.000000 0.000000 -10.379809 6.219497 2.833661 55.704072 19.476129 0.049423 -4.578017 23.181877 -0.247375 0.000000 0.000000 0.000000 
-10.260353 0.600539 78.895927 1.868312 -15.879369 30.357396 4.909733 2.185141 -98.960982 -12.671631 17.717584 101.650250 16.576863 32.774527 -5.665145 0.000000 0.000000 0.000000 -38.257638 -13.067790 -77.252879 29.563149 -41.729885 94.805750 -9.333170 -20.624300 -0.173841 0.000000 0.000000 0.000000 0.335371 0.517173 -13.296613 -0.626502 0.402752 -13.111108 0.239390 5.899257 41.453348 4.360447 -1.560437 -18.264630 0.000000 0.000000 0.000000 17.011606 -16.405919 3.730259 -49.085903 -47.348749 13.801190 40.291230 -28.903622 -7.964013 0.000000 0.000000 0.000000 -12.394426 6.610495 2.324611 55.705233 20.115346 2.044882 -5.139137 25.626272 -0.185574 0.000000 0.000000 0.000000 
-10.016653 0.657924 80.172073 0.197483 -7.586806 32.480154 4.888087 -1.515033 -91.987033 -13.022205 14.051900 92.011862 13.671005 29.567140 -11.914273 0.000000 0.000000 0.000000 -31.411664 -9.735105 -73.508953 21.425773 -31.575875 94.699660 -5.835542 -14.251792 0.237472 0.000000 0.000000 0.000000 0.560227 0.780282 -19.181289 -0.696057 0.494794 -13.261914 1.073060 6.488574 41.605524 4.421578 -1.228606 -16.419305 0.000000 0.000000 0.000000 17.721427 -15.575798 4.082224 -53.898938 -45.049723 13.056129 35.410056 -37.511121 -9.638739 0.000000 0.000000 0.000000 -14.366702 7.560058 1.793513 56.778255 20.708735 4.191452 -9.117955 28.491286 -0.774217 0.000000 0.000000 0.000000 
